<svg data-v-2cb57da0="" version="1.0" xmlns="http://www.w3.org/2000/svg" xmlns:xlink="http://www.w3.org/1999/xlink" width="100%" height="100%" viewBox="0 0 340.000000 250.000000" preserveAspectRatio="xMidYMid meet" color-interpolation-filters="sRGB" style="margin: auto;"><g data-v-2cb57da0="" class="iconmbgsvg" transform="translate(61.69999694824219,82.00330352783203)"><g fill="#000000" hollow-target="text"><g transform="matrix(1,0,0,1,141.5999984741211,0)" mask="url(#e405ab23-10cd-4ca2-870e-fdd0fe11755a)" opacity="0.7634778977483387"><g><svg x="0" y="0" width="75" height="85.99339570720969" filtersec="colorsf7620460845" class="image-svg-svg primary" style="overflow: visible;"><svg xmlns="http://www.w3.org/2000/svg" viewBox="12.22599983215332 -0.000054836273193359375 166.8040008544922 191.25405883789062"><path style="fill:white" d="M162.929 66.612a6 6 0 1 0-6.35 10.183c6.544 4.081 10.45 11.121 10.45 18.833s-3.906 14.752-10.45 18.833l-98.417 61.365c-6.943 4.329-15.359 4.542-22.512.573-7.154-3.97-11.425-11.225-11.425-19.406V34.262c0-8.181 4.271-15.436 11.425-19.406 7.153-3.969 15.569-3.756 22.512.573l57.292 35.723a6 6 0 1 0 6.35-10.183L64.512 5.247c-10.696-6.669-23.661-7-34.685-.883-11.021 6.116-17.601 17.293-17.601 29.898v122.73c0 12.605 6.58 23.782 17.602 29.898 5.25 2.913 10.939 4.364 16.616 4.364 6.241 0 12.467-1.754 18.068-5.247l98.417-61.365c10.082-6.287 16.101-17.133 16.101-29.015s-6.019-22.728-16.101-29.015z" ></path></svg></svg> <defs><filter id="colors3393394038"><feColorMatrix type="matrix" values="0 0 0 0 0.98046875  0 0 0 0 0.73046875  0 0 0 0 0.06640625  0 0 0 1 0" class="icon-fecolormatrix"></feColorMatrix></filter> <filter id="colorsf7620460845"><feColorMatrix type="matrix" values="0 0 0 0 0.99609375  0 0 0 0 0.99609375  0 0 0 0 0.99609375  0 0 0 1 0" class="icon-fecolormatrix"></feColorMatrix></filter> <filter id="colorsb8129699555"><feColorMatrix type="matrix" values="0 0 0 0 0  0 0 0 0 0  0 0 0 0 0  0 0 0 1 0" class="icon-fecolormatrix"></feColorMatrix></filter></defs></g><rect v-gra="id" width="87" height="97.99339294433594" transform="translate(-6, -6)" style="pointer-events:none;" fill="url(#K8qNAGcI9iSjIiiffo8LF)"></rect></g> <g transform="translate(0,26.458698272705078)"><g data-gra="path-name" fill-rule="" class="tp-name" transform="matrix(1,0,0,1,0,0)" opacity="0.12726200015856892"><g transform="scale(1)"><g><path style="fill:white" d="M12.28 0.2Q11.08 0.2 10.38-0.5 9.68-1.2 9.68-2.36L9.68-2.36 9.68-23.96 2.4-23.96Q0-23.96 0-26.08L0-26.08Q0-28.2 2.4-28.2L2.4-28.2 22.12-28.2Q24.52-28.2 24.52-26.08L24.52-26.08Q24.52-23.96 22.12-23.96L22.12-23.96 14.84-23.96 14.84-2.36Q14.84-1.2 14.14-0.5 13.44 0.2 12.28 0.2L12.28 0.2ZM39.48-19.96Q40.64-19.96 41.32-19.32 42-18.68 42-17.6L42-17.6 42-2.08Q42-1.04 41.3-0.4 40.6 0.24 39.48 0.24L39.48 0.24Q38.4 0.24 37.76-0.36 37.12-0.96 37.12-2L37.12-2 37.12-3Q36.2-1.4 34.64-0.54 33.08 0.32 31.12 0.32L31.12 0.32Q23.92 0.32 23.92-7.76L23.92-7.76 23.92-17.6Q23.92-18.68 24.6-19.32 25.28-19.96 26.4-19.96L26.4-19.96Q27.56-19.96 28.24-19.32 28.92-18.68 28.92-17.6L28.92-17.6 28.92-7.72Q28.92-5.64 29.76-4.64 30.6-3.64 32.4-3.64L32.4-3.64Q34.48-3.64 35.74-5.02 37-6.4 37-8.68L37-8.68 37-17.6Q37-18.68 37.68-19.32 38.36-19.96 39.48-19.96L39.48-19.96ZM58.56-20.04Q62.08-20.04 63.8-18.04 65.52-16.04 65.52-12L65.52-12 65.52-2.16Q65.52-1.04 64.86-0.4 64.2 0.24 63.04 0.24L63.04 0.24Q61.88 0.24 61.2-0.4 60.52-1.04 60.52-2.16L60.52-2.16 60.52-11.72Q60.52-14 59.66-15.04 58.8-16.08 56.96-16.08L56.96-16.08Q54.8-16.08 53.5-14.72 52.2-13.36 52.2-11.08L52.2-11.08 52.2-2.16Q52.2-1.04 51.52-0.4 50.84 0.24 49.68 0.24L49.68 0.24Q48.52 0.24 47.86-0.4 47.2-1.04 47.2-2.16L47.2-2.16 47.2-17.64Q47.2-18.68 47.88-19.32 48.56-19.96 49.72-19.96L49.72-19.96Q50.76-19.96 51.42-19.34 52.08-18.72 52.08-17.72L52.08-17.72 52.08-16.64Q53.08-18.28 54.76-19.16 56.44-20.04 58.56-20.04L58.56-20.04ZM86.08-5.36Q86.76-5.36 87.18-4.84 87.6-4.32 87.6-3.44L87.6-3.44Q87.6-2.2 86.12-1.36L86.12-1.36Q84.76-0.6 83.04-0.14 81.32 0.32 79.76 0.32L79.76 0.32Q75.04 0.32 72.28-2.4 69.52-5.12 69.52-9.84L69.52-9.84Q69.52-12.84 70.72-15.16 71.92-17.48 74.1-18.76 76.28-20.04 79.04-20.04L79.04-20.04Q81.68-20.04 83.64-18.88 85.6-17.72 86.68-15.6 87.76-13.48 87.76-10.6L87.76-10.6Q87.76-8.88 86.24-8.88L86.24-8.88 74.44-8.88Q74.68-6.12 76-4.82 77.32-3.52 79.84-3.52L79.84-3.52Q81.12-3.52 82.1-3.84 83.08-4.16 84.32-4.72L84.32-4.72Q85.52-5.36 86.08-5.36L86.08-5.36ZM79.16-16.52Q77.12-16.52 75.9-15.24 74.68-13.96 74.44-11.56L74.44-11.56 83.48-11.56Q83.4-14 82.28-15.26 81.16-16.52 79.16-16.52L79.16-16.52ZM117.32-28.4Q118.44-28.4 119.12-27.7 119.8-27 119.8-25.84L119.8-25.84 119.8-2.16Q119.8-1.04 119.16-0.4 118.52 0.24 117.48 0.24L117.48 0.24Q116.44 0.24 115.84-0.4 115.24-1.04 115.24-2.16L115.24-2.16 115.24-18.64 108.44-5.76Q107.96-4.88 107.4-4.46 106.84-4.04 106.08-4.04L106.08-4.04Q105.32-4.04 104.76-4.44 104.2-4.84 103.72-5.76L103.72-5.76 96.88-18.44 96.88-2.16Q96.88-1.08 96.26-0.42 95.64 0.24 94.6 0.24L94.6 0.24Q93.56 0.24 92.96-0.4 92.36-1.04 92.36-2.16L92.36-2.16 92.36-25.84Q92.36-27 93.02-27.7 93.68-28.4 94.8-28.4L94.8-28.4Q96.36-28.4 97.24-26.68L97.24-26.68 106.12-9.76 114.96-26.68Q115.84-28.4 117.32-28.4L117.32-28.4ZM140.96-5.36Q141.64-5.36 142.06-4.84 142.48-4.32 142.48-3.44L142.48-3.44Q142.48-2.2 141-1.36L141-1.36Q139.64-0.6 137.92-0.14 136.2 0.32 134.64 0.32L134.64 0.32Q129.92 0.32 127.16-2.4 124.4-5.12 124.4-9.84L124.4-9.84Q124.4-12.84 125.6-15.16 126.8-17.48 128.98-18.76 131.16-20.04 133.92-20.04L133.92-20.04Q136.56-20.04 138.52-18.88 140.48-17.72 141.56-15.6 142.64-13.48 142.64-10.6L142.64-10.6Q142.64-8.88 141.12-8.88L141.12-8.88 129.32-8.88Q129.56-6.12 130.88-4.82 132.2-3.52 134.72-3.52L134.72-3.52Q136-3.52 136.98-3.84 137.96-4.16 139.2-4.72L139.2-4.72Q140.4-5.36 140.96-5.36L140.96-5.36ZM134.04-16.52Q132-16.52 130.78-15.24 129.56-13.96 129.32-11.56L129.32-11.56 138.36-11.56Q138.28-14 137.16-15.26 136.04-16.52 134.04-16.52L134.04-16.52ZM159.72 0.36Q155.6 0.36 152.58-1.4 149.56-3.16 147.92-6.44 146.28-9.72 146.28-14.12L146.28-14.12Q146.28-18.52 147.9-21.78 149.52-25.04 152.56-26.8 155.6-28.56 159.72-28.56L159.72-28.56Q163.84-28.56 166.86-26.8 169.88-25.04 171.5-21.78 173.12-18.52 173.12-14.12L173.12-14.12Q173.12-9.72 171.48-6.44 169.84-3.16 166.82-1.4 163.8 0.36 159.72 0.36L159.72 0.36ZM159.72-3.76Q163.6-3.76 165.78-6.44 167.96-9.12 167.96-14.12L167.96-14.12Q167.96-19.12 165.78-21.78 163.6-24.44 159.72-24.44L159.72-24.44Q155.8-24.44 153.62-21.78 151.44-19.12 151.44-14.12L151.44-14.12Q151.44-9.12 153.62-6.44 155.8-3.76 159.72-3.76L159.72-3.76ZM189.24-20.04Q192.76-20.04 194.48-18.04 196.2-16.04 196.2-12L196.2-12 196.2-2.16Q196.2-1.04 195.54-0.4 194.88 0.24 193.72 0.24L193.72 0.24Q192.56 0.24 191.88-0.4 191.2-1.04 191.2-2.16L191.2-2.16 191.2-11.72Q191.2-14 190.34-15.04 189.48-16.08 187.64-16.08L187.64-16.08Q185.48-16.08 184.18-14.72 182.88-13.36 182.88-11.08L182.88-11.08 182.88-2.16Q182.88-1.04 182.2-0.4 181.52 0.24 180.36 0.24L180.36 0.24Q179.2 0.24 178.54-0.4 177.88-1.04 177.88-2.16L177.88-2.16 177.88-17.64Q177.88-18.68 178.56-19.32 179.24-19.96 180.4-19.96L180.4-19.96Q181.44-19.96 182.1-19.34 182.76-18.72 182.76-17.72L182.76-17.72 182.76-16.64Q183.76-18.28 185.44-19.16 187.12-20.04 189.24-20.04L189.24-20.04Z" transform="translate(0, 28.559999465942383)"></path></g> <!----> <!----> <!----> <!----> <!----> <!----> <!----></g></g> <g data-gra="path-slogan" fill-rule="" class="tp-slogan" fill="#000000" transform="matrix(1,0,0,1,60.80500030517578,35.920000076293945)" opacity="0"><!----> <!----> <g transform="scale(1, 1)"><g transform="scale(1)"><path d="M1.08 0L1.08-7.87L2.08-7.87L2.08-4.57L5.74-4.57L5.74-7.87L6.74-7.87L6.74 0L5.74 0L5.74-3.71L2.08-3.71L2.08 0L1.08 0ZM8.90 0L8.90-7.87L13.44-7.87L13.44-7.03L9.90-7.03L9.90-4.56L12.89-4.56L12.89-3.71L9.90-3.71L9.90-0.85L13.56-0.85L13.56 0L8.90 0ZM16.21-3.20L18.58-3.20L18.20-4.40Q17.99-5.06 17.80-5.72Q17.60-6.37 17.41-7.06L17.41-7.06L17.36-7.06Q17.18-6.37 16.99-5.72Q16.80-5.06 16.58-4.40L16.58-4.40L16.21-3.20ZM19.57 0L18.83-2.40L15.96-2.40L15.20 0L14.18 0L16.85-7.87L17.98-7.87L20.64 0L19.57 0ZM22.75-7.07L22.75-4.14L24.07-4.14Q25.00-4.14 25.49-4.52Q25.98-4.90 25.98-5.66L25.98-5.66Q25.98-6.44 25.49-6.76Q25.00-7.07 24.07-7.07L24.07-7.07L22.75-7.07ZM27.20 0L26.08 0L24.18-3.32L22.75-3.32L22.75 0L21.76 0L21.76-7.87L24.22-7.87Q24.82-7.87 25.33-7.76Q25.84-7.64 26.20-7.38Q26.57-7.12 26.77-6.70Q26.98-6.28 26.98-5.66L26.98-5.66Q26.98-4.74 26.50-4.19Q26.02-3.64 25.21-3.43L25.21-3.43L27.20 0ZM31.15 0L31.15-7.87L32.33-7.87L33.85-3.65L34.43-2.04L34.48-2.04L35.03-3.65L36.54-7.87L37.72-7.87L37.72 0L36.77 0L36.77-4.33Q36.77-4.86 36.81-5.50Q36.85-6.13 36.90-6.66L36.90-6.66L36.85-6.66L36.22-4.91L34.70-0.79L34.14-0.79L32.62-4.91L31.99-6.66L31.94-6.66Q31.98-6.13 32.03-5.50Q32.08-4.86 32.08-4.33L32.08-4.33L32.08 0L31.15 0ZM41.15 0L41.15-3.05L38.78-7.87L39.85-7.87L40.87-5.65Q41.06-5.22 41.24-4.80Q41.42-4.38 41.63-3.94L41.63-3.94L41.68-3.94Q41.88-4.38 42.08-4.80Q42.29-5.22 42.47-5.65L42.47-5.65L43.48-7.87L44.52-7.87L42.16-3.05L42.16 0L41.15 0ZM47.44-1.02L48.04-1.72Q48.46-1.27 49.03-1.00Q49.60-0.73 50.21-0.73L50.21-0.73Q50.99-0.73 51.42-1.09Q51.85-1.44 51.85-2.02L51.85-2.02Q51.85-2.32 51.75-2.53Q51.65-2.74 51.47-2.89Q51.30-3.04 51.06-3.16Q50.82-3.28 50.54-3.41L50.54-3.41L49.42-3.90Q49.14-4.02 48.85-4.19Q48.56-4.36 48.34-4.60Q48.11-4.84 47.96-5.17Q47.82-5.50 47.82-5.93L47.82-5.93Q47.82-6.37 48.01-6.76Q48.19-7.14 48.52-7.42Q48.85-7.70 49.30-7.86Q49.75-8.02 50.29-8.02L50.29-8.02Q51.00-8.02 51.60-7.75Q52.20-7.48 52.62-7.04L52.62-7.04L52.08-6.40Q51.72-6.74 51.28-6.94Q50.84-7.14 50.29-7.14L50.29-7.14Q49.63-7.14 49.23-6.83Q48.83-6.53 48.83-5.99L48.83-5.99Q48.83-5.70 48.94-5.50Q49.06-5.30 49.25-5.15Q49.44-5.00 49.67-4.89Q49.90-4.78 50.14-4.68L50.14-4.68L51.25-4.20Q51.59-4.06 51.89-3.87Q52.19-3.68 52.40-3.44Q52.62-3.19 52.75-2.86Q52.87-2.53 52.87-2.10L52.87-2.10Q52.87-1.63 52.69-1.22Q52.50-0.82 52.15-0.51Q51.80-0.20 51.31-0.03Q50.82 0.14 50.20 0.14L50.20 0.14Q49.37 0.14 48.66-0.17Q47.95-0.48 47.44-1.02L47.44-1.02ZM57.32 0.14L57.32 0.14Q56.58 0.14 55.96-0.14Q55.34-0.43 54.90-0.97Q54.46-1.50 54.21-2.26Q53.96-3.02 53.96-3.97L53.96-3.97Q53.96-4.92 54.21-5.67Q54.46-6.42 54.90-6.94Q55.34-7.46 55.96-7.74Q56.58-8.02 57.32-8.02L57.32-8.02Q58.07-8.02 58.69-7.73Q59.30-7.45 59.75-6.93Q60.20-6.41 60.45-5.66Q60.70-4.91 60.70-3.97L60.70-3.97Q60.70-3.02 60.45-2.26Q60.20-1.50 59.75-0.97Q59.30-0.43 58.69-0.14Q58.07 0.14 57.32 0.14ZM57.32-0.73L57.32-0.73Q57.85-0.73 58.28-0.96Q58.70-1.19 59.01-1.61Q59.32-2.04 59.48-2.63Q59.65-3.23 59.65-3.97L59.65-3.97Q59.65-4.70 59.48-5.29Q59.32-5.88 59.01-6.29Q58.70-6.70 58.28-6.92Q57.85-7.14 57.32-7.14L57.32-7.14Q56.80-7.14 56.37-6.92Q55.94-6.70 55.64-6.29Q55.33-5.88 55.16-5.29Q55.00-4.70 55.00-3.97L55.00-3.97Q55.00-3.23 55.16-2.63Q55.33-2.04 55.64-1.61Q55.94-1.19 56.37-0.96Q56.80-0.73 57.32-0.73ZM62.39 0L62.39-7.87L63.42-7.87L66.26-2.93L67.12-1.30L67.16-1.30Q67.13-1.90 67.09-2.54Q67.04-3.18 67.04-3.80L67.04-3.80L67.04-7.87L67.99-7.87L67.99 0L66.96 0L64.10-4.96L63.25-6.58L63.20-6.58Q63.25-5.98 63.29-5.36Q63.34-4.74 63.34-4.12L63.34-4.12L63.34 0L62.39 0ZM69.70-3.94L69.70-3.94Q69.70-4.88 69.97-5.64Q70.24-6.40 70.72-6.92Q71.21-7.45 71.87-7.73Q72.53-8.02 73.32-8.02L73.32-8.02Q74.14-8.02 74.68-7.71Q75.23-7.40 75.58-7.04L75.58-7.04L75.01-6.41Q74.71-6.72 74.32-6.93Q73.93-7.14 73.33-7.14L73.33-7.14Q72.73-7.14 72.25-6.92Q71.77-6.70 71.44-6.28Q71.10-5.87 70.91-5.28Q70.73-4.69 70.73-3.96L70.73-3.96Q70.73-3.22 70.90-2.62Q71.08-2.03 71.41-1.61Q71.74-1.19 72.22-0.96Q72.71-0.73 73.34-0.73L73.34-0.73Q73.76-0.73 74.14-0.86Q74.52-0.98 74.76-1.20L74.76-1.20L74.76-3.25L73.09-3.25L73.09-4.08L75.67-4.08L75.67-0.77Q75.29-0.37 74.66-0.11Q74.03 0.14 73.24 0.14L73.24 0.14Q72.46 0.14 71.81-0.13Q71.16-0.41 70.69-0.93Q70.22-1.45 69.96-2.21Q69.70-2.98 69.70-3.94Z" transform="translate(-1.08, 8.016)"></path></g></g></g></g></g></g><mask id="4c145ac5-3a19-4dcc-9a61-8e22182534e5"><g fill="white"><g><rect fill-opacity="1" stroke-width="2" x="0" y="0" width="75" height="85.99339570720969" class="image-rect"></rect> <svg x="0" y="0" width="75" height="85.99339570720969" class="image-svg-svg primary" style="overflow: visible;" filter="url(#colorsf7620460845)"><svg xmlns="http://www.w3.org/2000/svg" viewBox="12.22599983215332 -0.000054836273193359375 166.8040008544922 191.25405883789062"><path d="M162.929 66.612a6 6 0 1 0-6.35 10.183c6.544 4.081 10.45 11.121 10.45 18.833s-3.906 14.752-10.45 18.833l-98.417 61.365c-6.943 4.329-15.359 4.542-22.512.573-7.154-3.97-11.425-11.225-11.425-19.406V34.262c0-8.181 4.271-15.436 11.425-19.406 7.153-3.969 15.569-3.756 22.512.573l57.292 35.723a6 6 0 1 0 6.35-10.183L64.512 5.247c-10.696-6.669-23.661-7-34.685-.883-11.021 6.116-17.601 17.293-17.601 29.898v122.73c0 12.605 6.58 23.782 17.602 29.898 5.25 2.913 10.939 4.364 16.616 4.364 6.241 0 12.467-1.754 18.068-5.247l98.417-61.365c10.082-6.287 16.101-17.133 16.101-29.015s-6.019-22.728-16.101-29.015z"></path></svg></svg> <defs>  </defs></g></g> <g transform="translate(-141.5999984741211,26.458698272705078)" fill="black" stroke="black" stroke-width="6" stroke-linejoin="round"><g data-gra="path-name" fill-rule="" class="tp-name" transform="matrix(1,0,0,1,0,0)" opacity="0.12726200015856892"><g transform="scale(1)"><g><path d="M12.28 0.2Q11.08 0.2 10.38-0.5 9.68-1.2 9.68-2.36L9.68-2.36 9.68-23.96 2.4-23.96Q0-23.96 0-26.08L0-26.08Q0-28.2 2.4-28.2L2.4-28.2 22.12-28.2Q24.52-28.2 24.52-26.08L24.52-26.08Q24.52-23.96 22.12-23.96L22.12-23.96 14.84-23.96 14.84-2.36Q14.84-1.2 14.14-0.5 13.44 0.2 12.28 0.2L12.28 0.2ZM39.48-19.96Q40.64-19.96 41.32-19.32 42-18.68 42-17.6L42-17.6 42-2.08Q42-1.04 41.3-0.4 40.6 0.24 39.48 0.24L39.48 0.24Q38.4 0.24 37.76-0.36 37.12-0.96 37.12-2L37.12-2 37.12-3Q36.2-1.4 34.64-0.54 33.08 0.32 31.12 0.32L31.12 0.32Q23.92 0.32 23.92-7.76L23.92-7.76 23.92-17.6Q23.92-18.68 24.6-19.32 25.28-19.96 26.4-19.96L26.4-19.96Q27.56-19.96 28.24-19.32 28.92-18.68 28.92-17.6L28.92-17.6 28.92-7.72Q28.92-5.64 29.76-4.64 30.6-3.64 32.4-3.64L32.4-3.64Q34.48-3.64 35.74-5.02 37-6.4 37-8.68L37-8.68 37-17.6Q37-18.68 37.68-19.32 38.36-19.96 39.48-19.96L39.48-19.96ZM58.56-20.04Q62.08-20.04 63.8-18.04 65.52-16.04 65.52-12L65.52-12 65.52-2.16Q65.52-1.04 64.86-0.4 64.2 0.24 63.04 0.24L63.04 0.24Q61.88 0.24 61.2-0.4 60.52-1.04 60.52-2.16L60.52-2.16 60.52-11.72Q60.52-14 59.66-15.04 58.8-16.08 56.96-16.08L56.96-16.08Q54.8-16.08 53.5-14.72 52.2-13.36 52.2-11.08L52.2-11.08 52.2-2.16Q52.2-1.04 51.52-0.4 50.84 0.24 49.68 0.24L49.68 0.24Q48.52 0.24 47.86-0.4 47.2-1.04 47.2-2.16L47.2-2.16 47.2-17.64Q47.2-18.68 47.88-19.32 48.56-19.96 49.72-19.96L49.72-19.96Q50.76-19.96 51.42-19.34 52.08-18.72 52.08-17.72L52.08-17.72 52.08-16.64Q53.08-18.28 54.76-19.16 56.44-20.04 58.56-20.04L58.56-20.04ZM86.08-5.36Q86.76-5.36 87.18-4.84 87.6-4.32 87.6-3.44L87.6-3.44Q87.6-2.2 86.12-1.36L86.12-1.36Q84.76-0.6 83.04-0.14 81.32 0.32 79.76 0.32L79.76 0.32Q75.04 0.32 72.28-2.4 69.52-5.12 69.52-9.84L69.52-9.84Q69.52-12.84 70.72-15.16 71.92-17.48 74.1-18.76 76.28-20.04 79.04-20.04L79.04-20.04Q81.68-20.04 83.64-18.88 85.6-17.72 86.68-15.6 87.76-13.48 87.76-10.6L87.76-10.6Q87.76-8.88 86.24-8.88L86.24-8.88 74.44-8.88Q74.68-6.12 76-4.82 77.32-3.52 79.84-3.52L79.84-3.52Q81.12-3.52 82.1-3.84 83.08-4.16 84.32-4.72L84.32-4.72Q85.52-5.36 86.08-5.36L86.08-5.36ZM79.16-16.52Q77.12-16.52 75.9-15.24 74.68-13.96 74.44-11.56L74.44-11.56 83.48-11.56Q83.4-14 82.28-15.26 81.16-16.52 79.16-16.52L79.16-16.52ZM117.32-28.4Q118.44-28.4 119.12-27.7 119.8-27 119.8-25.84L119.8-25.84 119.8-2.16Q119.8-1.04 119.16-0.4 118.52 0.24 117.48 0.24L117.48 0.24Q116.44 0.24 115.84-0.4 115.24-1.04 115.24-2.16L115.24-2.16 115.24-18.64 108.44-5.76Q107.96-4.88 107.4-4.46 106.84-4.04 106.08-4.04L106.08-4.04Q105.32-4.04 104.76-4.44 104.2-4.84 103.72-5.76L103.72-5.76 96.88-18.44 96.88-2.16Q96.88-1.08 96.26-0.42 95.64 0.24 94.6 0.24L94.6 0.24Q93.56 0.24 92.96-0.4 92.36-1.04 92.36-2.16L92.36-2.16 92.36-25.84Q92.36-27 93.02-27.7 93.68-28.4 94.8-28.4L94.8-28.4Q96.36-28.4 97.24-26.68L97.24-26.68 106.12-9.76 114.96-26.68Q115.84-28.4 117.32-28.4L117.32-28.4ZM140.96-5.36Q141.64-5.36 142.06-4.84 142.48-4.32 142.48-3.44L142.48-3.44Q142.48-2.2 141-1.36L141-1.36Q139.64-0.6 137.92-0.14 136.2 0.32 134.64 0.32L134.64 0.32Q129.92 0.32 127.16-2.4 124.4-5.12 124.4-9.84L124.4-9.84Q124.4-12.84 125.6-15.16 126.8-17.48 128.98-18.76 131.16-20.04 133.92-20.04L133.92-20.04Q136.56-20.04 138.52-18.88 140.48-17.72 141.56-15.6 142.64-13.48 142.64-10.6L142.64-10.6Q142.64-8.88 141.12-8.88L141.12-8.88 129.32-8.88Q129.56-6.12 130.88-4.82 132.2-3.52 134.72-3.52L134.72-3.52Q136-3.52 136.98-3.84 137.96-4.16 139.2-4.72L139.2-4.72Q140.4-5.36 140.96-5.36L140.96-5.36ZM134.04-16.52Q132-16.52 130.78-15.24 129.56-13.96 129.32-11.56L129.32-11.56 138.36-11.56Q138.28-14 137.16-15.26 136.04-16.52 134.04-16.52L134.04-16.52ZM159.72 0.36Q155.6 0.36 152.58-1.4 149.56-3.16 147.92-6.44 146.28-9.72 146.28-14.12L146.28-14.12Q146.28-18.52 147.9-21.78 149.52-25.04 152.56-26.8 155.6-28.56 159.72-28.56L159.72-28.56Q163.84-28.56 166.86-26.8 169.88-25.04 171.5-21.78 173.12-18.52 173.12-14.12L173.12-14.12Q173.12-9.72 171.48-6.44 169.84-3.16 166.82-1.4 163.8 0.36 159.72 0.36L159.72 0.36ZM159.72-3.76Q163.6-3.76 165.78-6.44 167.96-9.12 167.96-14.12L167.96-14.12Q167.96-19.12 165.78-21.78 163.6-24.44 159.72-24.44L159.72-24.44Q155.8-24.44 153.62-21.78 151.44-19.12 151.44-14.12L151.44-14.12Q151.44-9.12 153.62-6.44 155.8-3.76 159.72-3.76L159.72-3.76ZM189.24-20.04Q192.76-20.04 194.48-18.04 196.2-16.04 196.2-12L196.2-12 196.2-2.16Q196.2-1.04 195.54-0.4 194.88 0.24 193.72 0.24L193.72 0.24Q192.56 0.24 191.88-0.4 191.2-1.04 191.2-2.16L191.2-2.16 191.2-11.72Q191.2-14 190.34-15.04 189.48-16.08 187.64-16.08L187.64-16.08Q185.48-16.08 184.18-14.72 182.88-13.36 182.88-11.08L182.88-11.08 182.88-2.16Q182.88-1.04 182.2-0.4 181.52 0.24 180.36 0.24L180.36 0.24Q179.2 0.24 178.54-0.4 177.88-1.04 177.88-2.16L177.88-2.16 177.88-17.64Q177.88-18.68 178.56-19.32 179.24-19.96 180.4-19.96L180.4-19.96Q181.44-19.96 182.1-19.34 182.76-18.72 182.76-17.72L182.76-17.72 182.76-16.64Q183.76-18.28 185.44-19.16 187.12-20.04 189.24-20.04L189.24-20.04Z" transform="translate(0, 28.559999465942383)"></path></g>       </g></g> <g data-gra="path-slogan" fill-rule="" class="tp-slogan" transform="matrix(1,0,0,1,60.80500030517578,35.920000076293945)" fill="white" opacity="0">  <g transform="scale(1, 1)"><g transform="scale(1)"><path d="M1.08 0L1.08-7.87L2.08-7.87L2.08-4.57L5.74-4.57L5.74-7.87L6.74-7.87L6.74 0L5.74 0L5.74-3.71L2.08-3.71L2.08 0L1.08 0ZM8.90 0L8.90-7.87L13.44-7.87L13.44-7.03L9.90-7.03L9.90-4.56L12.89-4.56L12.89-3.71L9.90-3.71L9.90-0.85L13.56-0.85L13.56 0L8.90 0ZM16.21-3.20L18.58-3.20L18.20-4.40Q17.99-5.06 17.80-5.72Q17.60-6.37 17.41-7.06L17.41-7.06L17.36-7.06Q17.18-6.37 16.99-5.72Q16.80-5.06 16.58-4.40L16.58-4.40L16.21-3.20ZM19.57 0L18.83-2.40L15.96-2.40L15.20 0L14.18 0L16.85-7.87L17.98-7.87L20.64 0L19.57 0ZM22.75-7.07L22.75-4.14L24.07-4.14Q25.00-4.14 25.49-4.52Q25.98-4.90 25.98-5.66L25.98-5.66Q25.98-6.44 25.49-6.76Q25.00-7.07 24.07-7.07L24.07-7.07L22.75-7.07ZM27.20 0L26.08 0L24.18-3.32L22.75-3.32L22.75 0L21.76 0L21.76-7.87L24.22-7.87Q24.82-7.87 25.33-7.76Q25.84-7.64 26.20-7.38Q26.57-7.12 26.77-6.70Q26.98-6.28 26.98-5.66L26.98-5.66Q26.98-4.74 26.50-4.19Q26.02-3.64 25.21-3.43L25.21-3.43L27.20 0ZM31.15 0L31.15-7.87L32.33-7.87L33.85-3.65L34.43-2.04L34.48-2.04L35.03-3.65L36.54-7.87L37.72-7.87L37.72 0L36.77 0L36.77-4.33Q36.77-4.86 36.81-5.50Q36.85-6.13 36.90-6.66L36.90-6.66L36.85-6.66L36.22-4.91L34.70-0.79L34.14-0.79L32.62-4.91L31.99-6.66L31.94-6.66Q31.98-6.13 32.03-5.50Q32.08-4.86 32.08-4.33L32.08-4.33L32.08 0L31.15 0ZM41.15 0L41.15-3.05L38.78-7.87L39.85-7.87L40.87-5.65Q41.06-5.22 41.24-4.80Q41.42-4.38 41.63-3.94L41.63-3.94L41.68-3.94Q41.88-4.38 42.08-4.80Q42.29-5.22 42.47-5.65L42.47-5.65L43.48-7.87L44.52-7.87L42.16-3.05L42.16 0L41.15 0ZM47.44-1.02L48.04-1.72Q48.46-1.27 49.03-1.00Q49.60-0.73 50.21-0.73L50.21-0.73Q50.99-0.73 51.42-1.09Q51.85-1.44 51.85-2.02L51.85-2.02Q51.85-2.32 51.75-2.53Q51.65-2.74 51.47-2.89Q51.30-3.04 51.06-3.16Q50.82-3.28 50.54-3.41L50.54-3.41L49.42-3.90Q49.14-4.02 48.85-4.19Q48.56-4.36 48.34-4.60Q48.11-4.84 47.96-5.17Q47.82-5.50 47.82-5.93L47.82-5.93Q47.82-6.37 48.01-6.76Q48.19-7.14 48.52-7.42Q48.85-7.70 49.30-7.86Q49.75-8.02 50.29-8.02L50.29-8.02Q51.00-8.02 51.60-7.75Q52.20-7.48 52.62-7.04L52.62-7.04L52.08-6.40Q51.72-6.74 51.28-6.94Q50.84-7.14 50.29-7.14L50.29-7.14Q49.63-7.14 49.23-6.83Q48.83-6.53 48.83-5.99L48.83-5.99Q48.83-5.70 48.94-5.50Q49.06-5.30 49.25-5.15Q49.44-5.00 49.67-4.89Q49.90-4.78 50.14-4.68L50.14-4.68L51.25-4.20Q51.59-4.06 51.89-3.87Q52.19-3.68 52.40-3.44Q52.62-3.19 52.75-2.86Q52.87-2.53 52.87-2.10L52.87-2.10Q52.87-1.63 52.69-1.22Q52.50-0.82 52.15-0.51Q51.80-0.20 51.31-0.03Q50.82 0.14 50.20 0.14L50.20 0.14Q49.37 0.14 48.66-0.17Q47.95-0.48 47.44-1.02L47.44-1.02ZM57.32 0.14L57.32 0.14Q56.58 0.14 55.96-0.14Q55.34-0.43 54.90-0.97Q54.46-1.50 54.21-2.26Q53.96-3.02 53.96-3.97L53.96-3.97Q53.96-4.92 54.21-5.67Q54.46-6.42 54.90-6.94Q55.34-7.46 55.96-7.74Q56.58-8.02 57.32-8.02L57.32-8.02Q58.07-8.02 58.69-7.73Q59.30-7.45 59.75-6.93Q60.20-6.41 60.45-5.66Q60.70-4.91 60.70-3.97L60.70-3.97Q60.70-3.02 60.45-2.26Q60.20-1.50 59.75-0.97Q59.30-0.43 58.69-0.14Q58.07 0.14 57.32 0.14ZM57.32-0.73L57.32-0.73Q57.85-0.73 58.28-0.96Q58.70-1.19 59.01-1.61Q59.32-2.04 59.48-2.63Q59.65-3.23 59.65-3.97L59.65-3.97Q59.65-4.70 59.48-5.29Q59.32-5.88 59.01-6.29Q58.70-6.70 58.28-6.92Q57.85-7.14 57.32-7.14L57.32-7.14Q56.80-7.14 56.37-6.92Q55.94-6.70 55.64-6.29Q55.33-5.88 55.16-5.29Q55.00-4.70 55.00-3.97L55.00-3.97Q55.00-3.23 55.16-2.63Q55.33-2.04 55.64-1.61Q55.94-1.19 56.37-0.96Q56.80-0.73 57.32-0.73ZM62.39 0L62.39-7.87L63.42-7.87L66.26-2.93L67.12-1.30L67.16-1.30Q67.13-1.90 67.09-2.54Q67.04-3.18 67.04-3.80L67.04-3.80L67.04-7.87L67.99-7.87L67.99 0L66.96 0L64.10-4.96L63.25-6.58L63.20-6.58Q63.25-5.98 63.29-5.36Q63.34-4.74 63.34-4.12L63.34-4.12L63.34 0L62.39 0ZM69.70-3.94L69.70-3.94Q69.70-4.88 69.97-5.64Q70.24-6.40 70.72-6.92Q71.21-7.45 71.87-7.73Q72.53-8.02 73.32-8.02L73.32-8.02Q74.14-8.02 74.68-7.71Q75.23-7.40 75.58-7.04L75.58-7.04L75.01-6.41Q74.71-6.72 74.32-6.93Q73.93-7.14 73.33-7.14L73.33-7.14Q72.73-7.14 72.25-6.92Q71.77-6.70 71.44-6.28Q71.10-5.87 70.91-5.28Q70.73-4.69 70.73-3.96L70.73-3.96Q70.73-3.22 70.90-2.62Q71.08-2.03 71.41-1.61Q71.74-1.19 72.22-0.96Q72.71-0.73 73.34-0.73L73.34-0.73Q73.76-0.73 74.14-0.86Q74.52-0.98 74.76-1.20L74.76-1.20L74.76-3.25L73.09-3.25L73.09-4.08L75.67-4.08L75.67-0.77Q75.29-0.37 74.66-0.11Q74.03 0.14 73.24 0.14L73.24 0.14Q72.46 0.14 71.81-0.13Q71.16-0.41 70.69-0.93Q70.22-1.45 69.96-2.21Q69.70-2.98 69.70-3.94Z" transform="translate(-1.08, 8.016)"></path></g></g></g></g></mask><defs v-gra="od"></defs><defs v-gra="id"><filter id="544c793a-f7d7-4891-b7a9-fcd7dc1d2164" filterUnits="userSpaceOnUse"><feColorMatrix type="matrix" values="0 0 0 0 0.99609375  0 0 0 0 0.99609375  0 0 0 0 0.99609375  0 0 0 1 0"></feColorMatrix></filter><linearGradient x1="0" y1="1" x2="0" y2="0" id="K8qNAGcI9iSjIiiffo8LF"><stop offset="0%" stop-color="#ff0844"></stop><stop offset="100%" stop-color="#ffb199"></stop></linearGradient><filter id="42443b3f1de60f6b6fd3b6a9844b4764" filterUnits="userSpaceOnUse"><feColorMatrix type="matrix" values="0 0 0 0 0.99609375  0 0 0 0 0.99609375  0 0 0 0 0.99609375  0 0 0 1 0"></feColorMatrix></filter></defs><mask v-gra="im" id="e405ab23-10cd-4ca2-870e-fdd0fe11755a"><g mask="url(#4c145ac5-3a19-4dcc-9a61-8e22182534e5)" filter="url(#544c793a-f7d7-4891-b7a9-fcd7dc1d2164)"><g><rect fill="#000000" fill-opacity="0" stroke-width="2" x="0" y="0" width="75" height="85.99339570720969" class="image-rect"></rect> <svg x="0" y="0" width="75" height="85.99339570720969" filtersec="colorsf7620460845" class="image-svg-svg primary" style="overflow: visible;"><svg xmlns="http://www.w3.org/2000/svg" viewBox="12.22599983215332 -0.000054836273193359375 166.8040008544922 191.25405883789062"><path d="M162.929 66.612a6 6 0 1 0-6.35 10.183c6.544 4.081 10.45 11.121 10.45 18.833s-3.906 14.752-10.45 18.833l-98.417 61.365c-6.943 4.329-15.359 4.542-22.512.573-7.154-3.97-11.425-11.225-11.425-19.406V34.262c0-8.181 4.271-15.436 11.425-19.406 7.153-3.969 15.569-3.756 22.512.573l57.292 35.723a6 6 0 1 0 6.35-10.183L64.512 5.247c-10.696-6.669-23.661-7-34.685-.883-11.021 6.116-17.601 17.293-17.601 29.898v122.73c0 12.605 6.58 23.782 17.602 29.898 5.25 2.913 10.939 4.364 16.616 4.364 6.241 0 12.467-1.754 18.068-5.247l98.417-61.365c10.082-6.287 16.101-17.133 16.101-29.015s-6.019-22.728-16.101-29.015z" fill="#000000"></path></svg></svg> <defs><filter id="colors3393394038"><feColorMatrix type="matrix" values="0 0 0 0 0.98046875  0 0 0 0 0.73046875  0 0 0 0 0.06640625  0 0 0 1 0" class="icon-fecolormatrix"></feColorMatrix></filter> <filter id="colorsf7620460845"><feColorMatrix type="matrix" values="0 0 0 0 0.99609375  0 0 0 0 0.99609375  0 0 0 0 0.99609375  0 0 0 1 0" class="icon-fecolormatrix"></feColorMatrix></filter> <filter id="colorsb8129699555"><feColorMatrix type="matrix" values="0 0 0 0 0  0 0 0 0 0  0 0 0 0 0  0 0 0 1 0" class="icon-fecolormatrix"></feColorMatrix></filter></defs></g></g></mask></svg>