<?xml version="1.0" encoding="iso-8859-1"?>
<!-- Generator: Adobe Illustrator 19.0.0, SVG Export Plug-In . SVG Version: 6.00 Build 0)  -->
<svg version="1.1" id="Capa_1" xmlns="http://www.w3.org/2000/svg" xmlns:xlink="http://www.w3.org/1999/xlink" x="0px" y="0px"
	 viewBox="0 0 60 60" style="enable-background:new 0 0 60 60;" xml:space="preserve">
<g>
	<path d="M20.707,19.293C20.52,19.105,20.266,19,20,19h-2c-0.266,0-0.52,0.105-0.707,0.293l-1,1C16.105,20.48,16,20.734,16,21v2
		c0,0.266,0.105,0.52,0.293,0.707l1,1C17.48,24.895,17.734,25,18,25h2c0.266,0,0.52-0.105,0.707-0.293l1-1
		C21.895,23.52,22,23.266,22,23v-2c0-0.266-0.105-0.52-0.293-0.707L20.707,19.293z M20,22.586L19.586,23h-1.172L18,22.586v-1.172
		L18.414,21h1.172L20,21.414V22.586z"/>
	<path d="M20.707,27.293C20.52,27.105,20.266,27,20,27h-2c-0.266,0-0.52,0.105-0.707,0.293l-1,1C16.105,28.48,16,28.734,16,29v2
		c0,0.266,0.105,0.52,0.293,0.707l1,1C17.48,32.895,17.734,33,18,33h2c0.266,0,0.52-0.105,0.707-0.293l1-1
		C21.895,31.52,22,31.266,22,31v-2c0-0.266-0.105-0.52-0.293-0.707L20.707,27.293z M20,30.586L19.586,31h-1.172L18,30.586v-1.172
		L18.414,29h1.172L20,29.414V30.586z"/>
	<path d="M20.707,35.293C20.52,35.105,20.266,35,20,35h-2c-0.266,0-0.52,0.105-0.707,0.293l-1,1C16.105,36.48,16,36.734,16,37v2
		c0,0.266,0.105,0.52,0.293,0.707l1,1C17.48,40.895,17.734,41,18,41h2c0.266,0,0.52-0.105,0.707-0.293l1-1
		C21.895,39.52,22,39.266,22,39v-2c0-0.266-0.105-0.52-0.293-0.707L20.707,35.293z M20,38.586L19.586,39h-1.172L18,38.586v-1.172
		L18.414,37h1.172L20,37.414V38.586z"/>
	<path d="M42.707,19.293C42.52,19.105,42.266,19,42,19h-2c-0.266,0-0.52,0.105-0.707,0.293l-1,1C38.105,20.48,38,20.734,38,21v2
		c0,0.266,0.105,0.52,0.293,0.707l1,1C39.48,24.895,39.734,25,40,25h2c0.266,0,0.52-0.105,0.707-0.293l1-1
		C43.895,23.52,44,23.266,44,23v-2c0-0.266-0.105-0.52-0.293-0.707L42.707,19.293z M42,22.586L41.586,23h-1.172L40,22.586v-1.172
		L40.414,21h1.172L42,21.414V22.586z"/>
	<path d="M42.707,27.293C42.52,27.105,42.266,27,42,27h-2c-0.266,0-0.52,0.105-0.707,0.293l-1,1C38.105,28.48,38,28.734,38,29v2
		c0,0.266,0.105,0.52,0.293,0.707l1,1C39.48,32.895,39.734,33,40,33h2c0.266,0,0.52-0.105,0.707-0.293l1-1
		C43.895,31.52,44,31.266,44,31v-2c0-0.266-0.105-0.52-0.293-0.707L42.707,27.293z M42,30.586L41.586,31h-1.172L40,30.586v-1.172
		L40.414,29h1.172L42,29.414V30.586z"/>
	<path d="M42.707,35.293C42.52,35.105,42.266,35,42,35h-2c-0.266,0-0.52,0.105-0.707,0.293l-1,1C38.105,36.48,38,36.734,38,37v2
		c0,0.266,0.105,0.52,0.293,0.707l1,1C39.48,40.895,39.734,41,40,41h2c0.266,0,0.52-0.105,0.707-0.293l1-1
		C43.895,39.52,44,39.266,44,39v-2c0-0.266-0.105-0.52-0.293-0.707L42.707,35.293z M42,38.586L41.586,39h-1.172L40,38.586v-1.172
		L40.414,37h1.172L42,37.414V38.586z"/>
	<path d="M56,52.142V39h1c0.553,0,1-0.447,1-1v-5v-5v-5c0-0.553-0.447-1-1-1h-1.324c-1.371-8.813-7.105-16.054-14.82-19.614
		l0.018-0.021l-0.472-0.189C37.205,0.774,33.683,0,30,0c-3.684,0-7.207,0.775-10.405,2.176L19.161,2.35l0.017,0.02
		C11.446,5.924,5.697,13.174,4.324,22H3c-0.553,0-1,0.447-1,1v5v5v5c0,0.553,0.447,1,1,1h1v13.142C2.279,52.589,1,54.141,1,56v3
		c0,0.553,0.447,1,1,1h12h32h12c0.553,0,1-0.447,1-1v-3C59,54.141,57.721,52.589,56,52.142z M54,52h-4V39h4V52z M4,37v-3h8v3h-1H5H4
		z M12,32H4v-3h8V32z M12,39h1c0.553,0,1-0.447,1-1v-5v-5v-5c0-0.553-0.447-1-1-1h-0.52c1.412-6.157,6.001-11.188,12.031-13.137
		l4.647,5.657l0.094,0.114l0,0l0.772,0.94l0.772-0.94l0,0l4.729-5.757C41.536,10.835,46.11,15.859,47.52,22H47c-0.553,0-1,0.447-1,1
		v5v5v5c0,0.553,0.447,1,1,1h1v4H12V39z M22.801,3.128c0.429-0.136,0.86-0.263,1.295-0.375c0.243-0.062,0.49-0.114,0.736-0.168
		c0.397-0.088,0.795-0.175,1.196-0.243c0.286-0.048,0.577-0.08,0.867-0.118c0.376-0.049,0.752-0.104,1.129-0.135
		c0.348-0.029,0.702-0.034,1.055-0.048c0.628-0.024,1.256-0.023,1.885,0.002c0.342,0.014,0.686,0.018,1.025,0.046
		c0.398,0.033,0.794,0.092,1.191,0.145c0.267,0.036,0.536,0.065,0.8,0.109c0.419,0.071,0.834,0.162,1.249,0.255
		c0.229,0.051,0.46,0.099,0.686,0.157C36.357,2.869,36.797,3,37.234,3.14c0.11,0.035,0.219,0.07,0.328,0.107l-7.538,9.179
		l-7.548-9.191C22.584,3.198,22.692,3.163,22.801,3.128z M56,32h-8v-3h8V32z M56,37h-1h-6h-1v-3h8V37z M56,27h-8v-3h0.732h6.078H56
		V27z M53.655,22h-4.102c-1.391-6.768-6.22-12.381-12.676-14.768L39.531,4C46.804,7.163,52.276,13.821,53.655,22z M20.505,3.985
		l2.655,3.232C16.684,9.596,11.841,15.214,10.447,22H6.345C7.727,13.808,13.214,7.142,20.505,3.985z M4,24h1.189h6.078H12v3H4V24z
		 M10,39v13H6V39H10z M3,56c0-1.103,0.897-2,2-2h6c1.103,0,2,0.897,2,2v2H3V56z M15,56c0-0.257-0.029-0.506-0.076-0.75
		c-0.015-0.079-0.041-0.154-0.06-0.231c-0.041-0.162-0.087-0.32-0.147-0.473c-0.034-0.085-0.073-0.166-0.112-0.249
		c-0.063-0.133-0.131-0.261-0.208-0.386c0.114-0.05,0.222-0.116,0.312-0.202C14.89,53.52,15,53.26,15,53
		c0-0.271-0.11-0.521-0.29-0.71c-0.37-0.37-1.05-0.37-1.42,0c-0.086,0.09-0.153,0.196-0.202,0.309
		c-0.161-0.099-0.326-0.191-0.5-0.267c-0.062-0.027-0.129-0.043-0.193-0.067c-0.13-0.049-0.258-0.103-0.395-0.138V45h36v5v2.127
		c-0.136,0.035-0.264,0.089-0.395,0.138c-0.064,0.024-0.13,0.04-0.193,0.067c-0.22,0.096-0.431,0.209-0.628,0.341
		c-0.044,0.03-0.082,0.066-0.125,0.098c-0.151,0.109-0.295,0.225-0.429,0.354c-0.061,0.059-0.114,0.123-0.171,0.185
		c-0.105,0.115-0.205,0.232-0.296,0.359c-0.054,0.074-0.103,0.15-0.151,0.228c-0.08,0.129-0.152,0.262-0.218,0.401
		c-0.039,0.082-0.078,0.163-0.112,0.249c-0.06,0.153-0.106,0.312-0.147,0.473c-0.02,0.078-0.045,0.152-0.06,0.231
		C45.029,55.494,45,55.743,45,56v2H15V56z M57,58H47v-2c0-1.103,0.897-2,2-2h6c1.103,0,2,0.897,2,2V58z"/>
	<circle cx="14" cy="47" r="1"/>
	<circle cx="17" cy="50" r="1"/>
	<circle cx="20" cy="47" r="1"/>
	<circle cx="20" cy="53" r="1"/>
	<circle cx="23" cy="50" r="1"/>
	<circle cx="26" cy="47" r="1"/>
	<circle cx="26" cy="53" r="1"/>
	<circle cx="29" cy="50" r="1"/>
	<circle cx="32" cy="47" r="1"/>
	<circle cx="32" cy="53" r="1"/>
	<circle cx="35" cy="50" r="1"/>
	<circle cx="38" cy="47" r="1"/>
	<circle cx="38" cy="53" r="1"/>
	<circle cx="41" cy="50" r="1"/>
	<circle cx="44" cy="47" r="1"/>
	<circle cx="44" cy="53" r="1"/>
	<circle cx="47" cy="50" r="1"/>
	<circle cx="17" cy="56" r="1"/>
	<circle cx="23" cy="56" r="1"/>
	<circle cx="29" cy="56" r="1"/>
	<circle cx="35" cy="56" r="1"/>
	<circle cx="41" cy="56" r="1"/>
	<path d="M28,21h-4c-0.553,0-1,0.447-1,1s0.447,1,1,1h4c0.553,0,1-0.447,1-1S28.553,21,28,21z"/>
	<path d="M36,21h-4c-0.553,0-1,0.447-1,1s0.447,1,1,1h4c0.553,0,1-0.447,1-1S36.553,21,36,21z"/>
	<path d="M28,29h-4c-0.553,0-1,0.447-1,1s0.447,1,1,1h4c0.553,0,1-0.447,1-1S28.553,29,28,29z"/>
	<path d="M36,29h-4c-0.553,0-1,0.447-1,1s0.447,1,1,1h4c0.553,0,1-0.447,1-1S36.553,29,36,29z"/>
	<path d="M28,37h-4c-0.553,0-1,0.447-1,1s0.447,1,1,1h4c0.553,0,1-0.447,1-1S28.553,37,28,37z"/>
	<path d="M36,37h-4c-0.553,0-1,0.447-1,1s0.447,1,1,1h4c0.553,0,1-0.447,1-1S36.553,37,36,37z"/>
</g>
<g>
</g>
<g>
</g>
<g>
</g>
<g>
</g>
<g>
</g>
<g>
</g>
<g>
</g>
<g>
</g>
<g>
</g>
<g>
</g>
<g>
</g>
<g>
</g>
<g>
</g>
<g>
</g>
<g>
</g>
</svg>
